<?xml version="1.0" encoding="utf-8"?>
<!-- Generator: Adobe Illustrator 25.2.3, SVG Export Plug-In . SVG Version: 6.00 Build 0)  -->
<svg version="1.1" id="Laag_1" xmlns="http://www.w3.org/2000/svg" xmlns:xlink="http://www.w3.org/1999/xlink" x="0px" y="0px"
	 viewBox="0 0 700 700" style="enable-background:new 0 0 700 700;" xml:space="preserve">
<style type="text/css">
	.st0{fill:#1B77C5;}
</style>
<g>
	<path class="st0" d="M211.1,295.7c2.2,0.6,3.9,0.6,6.2,0.6c9.5,0,18.5-6.2,21.3-16.2c3.4-11.2,13.4-19,25.8-19
		c11.8,0,22.4,7.8,25.2,19c3.4,11.8,15.7,18.5,26.9,15.1c11.8-3.4,18.5-15.7,15.1-26.9c-8.4-30.2-36.4-51.5-67.8-51.5
		c-31.4,0-59.4,21.3-67.8,51.5C192.6,280,199.4,292.3,211.1,295.7L211.1,295.7z"/>
	<path class="st0" d="M436.2,217.3c-31.4,0-59.4,21.3-67.8,51.5c-3.4,11.8,3.4,24.1,15.1,26.9c11.8,3.4,24.1-3.4,26.9-15.1
		c3.4-11.2,13.4-19,25.2-19c11.8,0,22.4,7.8,25.8,19c2.8,9.5,11.8,16.2,21.3,16.2c1.7,0,3.9,0,6.2-0.6c11.8-3.4,18.5-15.7,15.1-26.9
		C495.6,238.6,467.6,217.3,436.2,217.3L436.2,217.3z"/>
	<path class="st0" d="M469.8,353.4H230.2c-17.4,0-31.9,13.4-32.5,31.4c-0.6,21.8,7.8,57.7,35.8,86.2c19,20.2,54.9,43.7,116.5,43.7
		s97.4-23.5,116.5-43.7c27.4-28.6,36.4-64.4,35.8-86.2C501.8,366.8,487.8,353.4,469.8,353.4z M271.6,455.3
		c21.3-15.7,48.7-25.2,78.4-25.2s57.1,9.5,78.4,25.2c-20.2,14.6-46.5,22.4-78.4,22.4C317.5,477.7,291.2,470.4,271.6,455.3z"/>
	<path class="st0" d="M506.2,84H193.8C133.3,84,84,133.3,84,193.8v312.5C84,566.7,133.3,616,193.8,616h312.5
		c60.5,0,109.8-49.3,109.8-109.8l0-312.5C616,133.3,566.7,84,506.2,84L506.2,84z M572.3,506.2c0,36.4-29.7,66.1-66.1,66.1l-312.5,0
		c-36.4,0-66.1-29.7-66.1-66.1l0-312.5c0-36.4,29.7-66.1,66.1-66.1h312.5c36.4,0,66.1,29.7,66.1,66.1L572.3,506.2z"/>
</g>
</svg>
