<?xml version="1.0" encoding="utf-8"?>
<!-- Generator: Adobe Illustrator 25.2.3, SVG Export Plug-In . SVG Version: 6.00 Build 0)  -->
<svg version="1.1" id="Laag_1" xmlns="http://www.w3.org/2000/svg" xmlns:xlink="http://www.w3.org/1999/xlink" x="0px" y="0px"
	 viewBox="0 0 700 700" style="enable-background:new 0 0 700 700;" xml:space="preserve">
<style type="text/css">
	.st0{fill:#1B77C5;}
</style>
<g>
	<path class="st0" d="M528.1,138.6H171.9c-16.2,0-29.7,13.4-29.7,29.7v48.2c0,16.2,13.4,29.7,29.7,29.7v285.6
		c0,29.7,29.7,29.7,29.7,29.7h296.8c0,0,29.7,0,29.7-29.7V246.1c16.2,0,29.7-13.4,29.7-29.7v-48.2
		C557.8,152.6,544.3,138.6,528.1,138.6L528.1,138.6z M435.1,389.5l-73.9,89l-0.6,0.6c-6.2,6.2-15.7,5.6-21.8-0.6l-73.9-89
		c-6.7-8.4,0-24.1,11.2-24.1h44.8v-74.5c0-7.3,5-13.4,12.3-14.6h2.8h29.7c7.8,0.6,14.6,6.7,14.6,14.6v73.9H425
		C435.1,365.4,442.4,380.5,435.1,389.5L435.1,389.5z"/>
</g>
</svg>
