<?xml version="1.0" encoding="utf-8"?>
<!-- Generator: Adobe Illustrator 25.2.3, SVG Export Plug-In . SVG Version: 6.00 Build 0)  -->
<svg version="1.1" id="Laag_1" xmlns="http://www.w3.org/2000/svg" xmlns:xlink="http://www.w3.org/1999/xlink" x="0px" y="0px"
	 viewBox="0 0 700 700" style="enable-background:new 0 0 700 700;" xml:space="preserve">
<style type="text/css">
	.st0{fill:#1B77C5;}
</style>
<g>
	<path class="st0" d="M504,84H196c-61.6,0-112,50.4-112,112v308c0,61.6,50.4,112,112,112h308c61.6,0,112-50.4,112-112V196
		C616,134.4,565.6,84,504,84z M565.6,504c0,33.6-27.4,61.6-61.6,61.6H196c-33.6,0-61.6-27.4-61.6-61.6V196
		c0-33.6,27.4-61.6,61.6-61.6h308c33.6,0,61.6,27.4,61.6,61.6V504z"/>
	<path class="st0" d="M405.4,420H294.6c-14,0-25.2,11.2-25.2,25.2s11.2,25.2,25.2,25.2H406c14,0,25.2-11.2,25.2-25.2
		S419.4,420,405.4,420L405.4,420z"/>
	<path class="st0" d="M297.9,306.3c0-1.7-0.6-3.4-0.6-5c5.6,2.2,10.6,3.4,15.7,5c1.1,0.6,2.2,0.6,3.4,0.6c6.7,0,12.3-4.5,14-11.2
		c1.7-7.8-2.8-15.7-10.6-17.4c-7.8-1.7-17.4-5.6-28-10.6c-5.6-2.8-11.8-6.2-17.9-9.5c-3.4-1.7-6.7-3.9-9.5-6.2l-2.8-1.7
		c-8.4-5.6-16.2-11.8-23.5-17.9c-5.6-5.6-15.1-5-20.2,0.6c-5.6,5.6-5,15.1,0.6,20.2c4.5,3.9,9,7.8,14,11.8
		c-15.7,7.3-26.3,23-26.3,41.4c0,25.2,20.7,45.9,45.9,45.9C277.2,352.2,297.9,331.5,297.9,306.3L297.9,306.3z"/>
	<path class="st0" d="M467.6,264.9c5-3.9,9.5-7.8,14-11.8c5.6-5.6,6.2-14.6,0.6-20.2c-5.6-5.6-14.6-6.2-20.2-0.6
		c-6.7,6.7-15.7,13.4-25.8,20.2c-2.8,2.2-6.2,3.9-9.5,6.2c-6.2,3.4-12.3,6.7-17.9,9.5c-10.1,4.5-19.6,8.4-28,10.6
		c-7.8,2.2-12.3,10.1-10.6,17.4c1.7,6.7,7.3,10.6,14,10.6c1.1,0,2.2,0,3.4-0.6c5-1.1,10.1-2.8,15.1-5c0,1.7-0.6,3.4-0.6,5
		c0,25.2,20.7,45.9,45.9,45.9c25.2,0,45.9-20.7,45.9-45.9C494.5,287.8,483.3,272.2,467.6,264.9L467.6,264.9z"/>
</g>
</svg>
