<?xml version="1.0" encoding="utf-8"?>
<!-- Generator: Adobe Illustrator 25.2.3, SVG Export Plug-In . SVG Version: 6.00 Build 0)  -->
<svg version="1.1" id="Laag_1" xmlns="http://www.w3.org/2000/svg" xmlns:xlink="http://www.w3.org/1999/xlink" x="0px" y="0px"
	 viewBox="0 0 700 700" style="enable-background:new 0 0 700 700;" xml:space="preserve">
<style type="text/css">
	.st0{fill:#1B77C5;}
</style>
<g>
	<path class="st0" d="M571,422.3c-22.1-10.8-47.1-14-71.2-9c-24.1,5-45.8,17.8-61.8,36.4c-49.9-24.9-100.1-50.2-150.2-75.5
		c3.6-15.9,3.6-32.5,0-48.4c50.2-25.2,100.3-50.5,150.2-75.5c16,18.6,37.8,31.4,61.8,36.4c24.1,5,49.1,1.8,71.2-9
		C625.2,251,645.8,187,617,132.8c-28.7-54.2-94.1-78.5-146.9-52.1c-44.9,22.4-67.2,73.7-56.2,121.9c-49.8,24.9-99.8,50.3-149.9,75.6
		l0,0c-9.4-11-21-20.1-34-26.5c-54-26.9-120.3-4-148.1,49.6c-27.7,53.6-5.2,118.2,49.4,146c46.3,23.5,100.6,11.8,132.7-25.7
		c50.2,25.3,100.2,50.7,150,75.6c-11,48.3,11.3,99.5,56.2,122c52.8,26.4,118.1,2.2,146.9-52.1C645.7,513,625.2,449,571,422.3
		L571,422.3z"/>
</g>
</svg>
