<?xml version="1.0" encoding="utf-8"?>
<!-- Generator: Adobe Illustrator 25.2.3, SVG Export Plug-In . SVG Version: 6.00 Build 0)  -->
<svg version="1.1" id="Laag_1" xmlns="http://www.w3.org/2000/svg" xmlns:xlink="http://www.w3.org/1999/xlink" x="0px" y="0px"
	 viewBox="0 0 700 700" style="enable-background:new 0 0 700 700;" xml:space="preserve">
<style type="text/css">
	.st0{fill:#1B77C5;}
</style>
<g>
	<path class="st0" d="M241,298.8c11.4,6.8,18.3,9,32.7,17.1c10.4-13.7,27.8-29.5,41-49.4c5.9-9.3,10.9-18.8,10.5-33.1
		c-0.4-15.1-5.2-27.2-15-34c-6.2-4.3-15.1-7.5-26.5-5.3c-19.6,5-23.8,18.6-26.8,29.7c-6.7-9.5-17.1-22-37.7-18
		c-16.7,4.1-24.9,16.3-26.3,29.8c-1.6,16.5,7.2,32.8,16.1,41.4C218.1,285.8,230.2,292.4,241,298.8L241,298.8z"/>
	<path class="st0" d="M492.1,356.9H207c-6.3,0-12.1,3-15.8,8c-3.7,5.1-4.8,11.6-2.9,17.5c22.5,70.5,87.2,117.8,161.2,117.8
		c74,0,138.8-47.3,161.2-117.8c1.9-6,0.8-12.5-2.9-17.5C504.2,359.9,498.3,356.9,492.1,356.9L492.1,356.9z M349.6,461.1
		c-47.3,0-89.8-25.2-112.6-64.9h225.2C439.3,435.8,396.9,461.1,349.6,461.1z"/>
	<path class="st0" d="M426.2,316.8c14.4-8.1,21.3-10.3,32.7-17.1c10.8-6.4,22.9-13,32-21.8c8.9-8.6,17.7-24.9,16.1-41.4
		c-1.3-13.6-9.6-25.7-26.3-29.8c-20.6-3.9-31.1,8.5-37.7,18c-3-11-7.3-24.7-26.8-29.7c-11.4-2.2-20.3,1-26.5,5.4
		c-9.8,6.8-14.6,19-15,34c-0.4,14.2,4.6,23.7,10.5,33.1C398.4,287.3,415.8,303.1,426.2,316.8L426.2,316.8z"/>
	<path class="st0" d="M504,84H196c-61.6,0-112,50.4-112,112v308c0,61.6,50.4,112,112,112h308c61.6,0,112-50.4,112-112V196
		C616,134.4,565.6,84,504,84z M565.6,504c0,33.6-27.4,61.6-61.6,61.6H196c-33.6,0-61.6-27.4-61.6-61.6V196
		c0-33.6,27.4-61.6,61.6-61.6h308c33.6,0,61.6,27.4,61.6,61.6V504z"/>
</g>
</svg>
