<?xml version="1.0" encoding="utf-8"?>
<!-- Generator: Adobe Illustrator 25.2.3, SVG Export Plug-In . SVG Version: 6.00 Build 0)  -->
<svg version="1.1" id="Laag_1" xmlns="http://www.w3.org/2000/svg" xmlns:xlink="http://www.w3.org/1999/xlink" x="0px" y="0px"
	 viewBox="0 0 700 700" style="enable-background:new 0 0 700 700;" xml:space="preserve">
<style type="text/css">
	.st0{fill:#1B77C5;}
</style>
<g>
	<path class="st0" d="M363.1,258.3H179.7c-20.8,0-40.8,8.3-55.6,23c-14.7,14.7-23,34.7-23,55.6v183.4c0,20.8,8.3,40.8,23,55.6
		s34.7,23,55.6,23h183.4c20.8,0,40.8-8.3,55.6-23c14.7-14.7,23-34.7,23-55.6V336.9c0-20.8-8.3-40.8-23-55.6
		C403.9,266.6,383.9,258.3,363.1,258.3L363.1,258.3z M389.3,520.3c0,6.9-2.8,13.6-7.7,18.5c-4.9,4.9-11.6,7.7-18.5,7.7H179.7
		c-6.9,0-13.6-2.8-18.5-7.7c-4.9-4.9-7.7-11.6-7.7-18.5V336.9c0-6.9,2.8-13.6,7.7-18.5c4.9-4.9,11.6-7.7,18.5-7.7h183.4
		c6.9,0,13.6,2.8,18.5,7.7c4.9,4.9,7.7,11.6,7.7,18.5V520.3z"/>
	<path class="st0" d="M520.3,101.1H336.9c-20.8,0-40.8,8.3-55.6,23c-14.7,14.7-23,34.7-23,55.6v26.2c0,9.4,5,18,13.1,22.7
		c8.1,4.7,18.1,4.7,26.2,0c8.1-4.7,13.1-13.3,13.1-22.7v-26.2c0-6.9,2.8-13.6,7.7-18.5c4.9-4.9,11.6-7.7,18.5-7.7h183.4
		c6.9,0,13.6,2.8,18.5,7.7c4.9,4.9,7.7,11.6,7.7,18.5v183.4c0,6.9-2.8,13.6-7.7,18.5c-4.9,4.9-11.6,7.7-18.5,7.7h-26.2
		c-9.4,0-18,5-22.7,13.1c-4.7,8.1-4.7,18.1,0,26.2c4.7,8.1,13.3,13.1,22.7,13.1h26.2c20.8,0,40.8-8.3,55.6-23
		c14.7-14.7,23-34.7,23-55.6V179.7c0-20.8-8.3-40.8-23-55.6S541.1,101.1,520.3,101.1L520.3,101.1z"/>
</g>
</svg>
