<?xml version="1.0" encoding="utf-8"?>
<!-- Generator: Adobe Illustrator 25.2.3, SVG Export Plug-In . SVG Version: 6.00 Build 0)  -->
<svg version="1.1" id="Laag_1" xmlns="http://www.w3.org/2000/svg" xmlns:xlink="http://www.w3.org/1999/xlink" x="0px" y="0px"
	 viewBox="0 0 700 700" style="enable-background:new 0 0 700 700;" xml:space="preserve">
<style type="text/css">
	.st0{fill:#1B77C5;}
</style>
<g>
	<path class="st0" d="M449.3,435.5c0,0-0.1-0.1-0.1-0.1c-1.1-2.1-2.2-4.1-3.5-6.1c-0.2-0.3-0.4-0.6-0.6-1c-1.1-1.7-2.2-3.4-3.4-5.1
		c-0.2-0.3-0.4-0.6-0.6-0.8c-1.3-1.9-2.7-3.7-4.2-5.5c-0.2-0.2-0.4-0.4-0.5-0.6c-1.3-1.6-2.7-3.1-4-4.6c-0.3-0.3-0.6-0.6-0.9-0.9
		c-1.6-1.7-3.2-3.3-4.9-4.9c-0.1-0.1-0.1-0.1-0.2-0.2c-1.6-1.5-3.2-2.9-4.9-4.3c-0.4-0.3-0.7-0.6-1.1-0.9c-3.5-2.9-7.2-5.5-11.1-7.9
		c-0.4-0.3-0.9-0.5-1.3-0.8c-1.7-1.1-3.5-2.1-5.3-3c-0.2-0.1-0.5-0.3-0.7-0.4c-2-1.1-4-2-6.1-3c-0.5-0.2-0.9-0.4-1.4-0.6
		c-1.7-0.8-3.5-1.5-5.3-2.1c-0.4-0.2-0.9-0.3-1.3-0.5c-2.1-0.8-4.3-1.5-6.5-2.1c-0.4-0.1-0.9-0.2-1.3-0.4c-1.8-0.5-3.7-1-5.5-1.4
		c-0.6-0.1-1.1-0.3-1.7-0.4c-2.2-0.5-4.5-0.9-6.8-1.2c-0.3,0-0.7-0.1-1-0.1c-2-0.3-4.1-0.5-6.1-0.6c-0.6-0.1-1.2-0.1-1.9-0.1
		c-2.4-0.1-4.7-0.2-7.1-0.2c-2.4,0-4.8,0.1-7.1,0.2c-0.6,0-1.3,0.1-1.9,0.1c-2.1,0.2-4.1,0.4-6.1,0.6c-0.3,0-0.7,0.1-1,0.1
		c-2.3,0.3-4.6,0.7-6.8,1.2c-0.6,0.1-1.1,0.2-1.7,0.4c-1.9,0.4-3.7,0.9-5.5,1.4c-0.4,0.1-0.9,0.2-1.3,0.4c-2.2,0.6-4.3,1.3-6.5,2.1
		c-0.4,0.2-0.9,0.3-1.3,0.5c-1.8,0.7-3.5,1.4-5.3,2.1c-0.5,0.2-0.9,0.4-1.4,0.6c-2.1,0.9-4.1,1.9-6.1,3c-0.2,0.1-0.5,0.3-0.7,0.4
		c-1.8,1-3.5,2-5.3,3c-0.4,0.3-0.9,0.5-1.3,0.8c-3.9,2.4-7.6,5.1-11.1,7.9c-0.4,0.3-0.8,0.6-1.1,0.9c-1.7,1.4-3.3,2.8-4.9,4.3
		c-0.1,0.1-0.2,0.1-0.2,0.2c-1.7,1.6-3.3,3.2-4.9,4.9c-0.3,0.3-0.6,0.6-0.9,0.9c-1.4,1.5-2.7,3-4,4.6c-0.2,0.2-0.4,0.4-0.5,0.6
		c-1.5,1.8-2.9,3.6-4.2,5.5c-0.2,0.3-0.4,0.6-0.6,0.8c-1.2,1.7-2.3,3.4-3.4,5.1c-0.2,0.3-0.4,0.6-0.6,1c-1.2,2-2.4,4-3.4,6.1
		c0,0-0.1,0.1-0.1,0.1c0,0,0,0,0,0c-7.2,13.7-11.6,29-12.6,45.2c117.4-41.2,223.8,0,223.8,0C460.9,464.5,456.5,449.2,449.3,435.5
		L449.3,435.5z"/>
	<path class="st0" d="M297.3,276.3c0,23.6-14.9,42.6-33.4,42.6c-18.4,0-33.4-19.1-33.4-42.6c0-23.5,14.9-42.6,33.4-42.6
		C282.4,233.7,297.3,252.7,297.3,276.3"/>
	<path class="st0" d="M469.4,276.3c0,23.6-14.9,42.6-33.4,42.6c-18.4,0-33.4-19.1-33.4-42.6c0-23.5,14.9-42.6,33.4-42.6
		C454.5,233.7,469.4,252.7,469.4,276.3"/>
	<path class="st0" d="M498.2,315.3l-20.3,20.3c-11.2,11.2-11.2,29.4,0,40.6s29.4,11.2,40.6,0s11.2-29.4,0-40.6L498.2,315.3z"/>
	<path class="st0" d="M201.8,315.3l-20.3,20.3c-11.2,11.2-11.2,29.4,0,40.6s29.4,11.2,40.6,0s11.2-29.4,0-40.6L201.8,315.3z"/>
	<path class="st0" d="M504,84H196c-61.6,0-112,50.4-112,112v308c0,61.6,50.4,112,112,112h308c61.6,0,112-50.4,112-112V196
		C616,134.4,565.6,84,504,84z M565.6,504c0,33.6-27.4,61.6-61.6,61.6H196c-33.6,0-61.6-27.4-61.6-61.6V196
		c0-33.6,27.4-61.6,61.6-61.6h308c33.6,0,61.6,27.4,61.6,61.6V504z"/>
</g>
</svg>
