<?xml version="1.0" encoding="utf-8"?>
<!-- Generator: Adobe Illustrator 25.2.3, SVG Export Plug-In . SVG Version: 6.00 Build 0)  -->
<svg version="1.1" id="Laag_1" xmlns="http://www.w3.org/2000/svg" xmlns:xlink="http://www.w3.org/1999/xlink" x="0px" y="0px"
	 viewBox="0 0 700 700" style="enable-background:new 0 0 700 700;" xml:space="preserve">
<style type="text/css">
	.st0{fill-rule:evenodd;clip-rule:evenodd;fill:#1B77C5;}
</style>
<path class="st0" d="M291.9,46.6c-3.2,0-6.4,1.3-8.6,3.6c-0.2,0.2-0.4,0.4-0.6,0.6c-0.2,0.2-0.4,0.5-0.6,0.8
	c-0.1,0.1-0.1,0.2-0.2,0.3c-0.1,0.1-0.1,0.1-0.2,0.2c-0.3,0.6-0.6,1.2-0.9,1.8c-1.1,2.6-1.3,5.5-0.4,8.2v0.1l11.4,68.3v0
	c0.8,4.9,4.6,8.7,9.5,9.5l-44.5,278.3c-0.6,3.7,0.6,7.5,3.3,10.1l81.7,81.7l0,0c4.6,4.6,11.9,4.6,16.5,0l81.7-81.7l0,0
	c2.7-2.6,3.9-6.4,3.3-10.1l-44.5-278.3c4.9-0.9,8.6-4.7,9.5-9.5l11.7-70c0.6-3.4-0.4-6.9-2.6-9.5s-5.5-4.1-8.9-4.1H293.6
	C293.1,46.7,292.5,46.6,291.9,46.6L291.9,46.6z M305.4,70.1h89.1l-7.7,46.7h-73.6L305.4,70.1z M325,140.1H375l5.5,34.5l-72.8,72.9
	L325,140.1z M385.1,203.1l8.4,52.3l-0.2-0.2L290,358.6l11.5-71.9L385.1,203.1z M398,283.6l8.3,52l-103,103l-22.6-22.6l2.9-18.2
	L398,283.6z M410.9,364l8.3,52.1L350,485.3l-30.1-30.1L410.9,364z"/>
</svg>
