<?xml version="1.0" encoding="utf-8"?>
<!-- Generator: Adobe Illustrator 25.2.3, SVG Export Plug-In . SVG Version: 6.00 Build 0)  -->
<svg version="1.1" id="Laag_1" xmlns="http://www.w3.org/2000/svg" xmlns:xlink="http://www.w3.org/1999/xlink" x="0px" y="0px"
	 viewBox="0 0 700 700" style="enable-background:new 0 0 700 700;" xml:space="preserve">
<style type="text/css">
	.st0{fill:#1B77C5;}
</style>
<g>
	<path class="st0" d="M606.1,246c0-0.7-0.2-1.4-0.4-2.1c-0.1-0.3-0.1-0.7-0.3-0.9c-0.4-0.9-0.9-1.7-1.6-2.4c0,0-0.1-0.1-0.1-0.2
		c-0.7-0.7-1.5-1.3-2.4-1.7l-0.3-0.1l-237.1-111c-8.8-4.1-18.9-4.2-27.8,0l-237,111l-0.3,0.1c-0.9,0.4-1.8,1-2.4,1.7
		c0,0-0.1,0.1-0.1,0.2c-0.7,0.7-1.2,1.5-1.6,2.4c-0.1,0.3-0.2,0.6-0.3,0.9c-0.2,0.7-0.4,1.4-0.4,2.1c0,0.2-0.1,0.3-0.1,0.5v56.7
		c0,4.8,3.9,8.6,8.6,8.6h16.8v23.8c0,6.6,4.2,12.1,10.1,14.2v169.7h-1.5c-4.8,0-8.6,3.9-8.6,8.6v30.3h-11.5c-4.8,0-8.6,3.9-8.6,8.6
		c0,4.8,3.9,8.6,8.6,8.6h484.3c4.8,0,8.6-3.9,8.6-8.6c0-4.8-3.9-8.6-8.6-8.6h-11.4v-30.3c0-4.8-3.9-8.6-8.6-8.6h-1.5l0-169.7
		c5.9-2.1,10.1-7.6,10.1-14.2v-23.8h16.8c4.8,0,8.6-3.9,8.6-8.6l0-56.7C606.2,246.3,606.1,246.1,606.1,246L606.1,246z M200.8,333.5
		h-64.3v-21.7h64.4L200.8,333.5L200.8,333.5z M146.6,350.7h44.1v149c0,4.8,3.9,8.6,8.6,8.6c4.8,0,8.6-3.9,8.6-8.6V349.8
		c5.9-2.1,10.1-7.6,10.1-14.2v-23.8h22.1v23.8c0,6.6,4.2,12.1,10.1,14.2v169.7l-1.4,0c-4.8,0-8.6,3.9-8.6,8.6v30.3h-22.1v-30.3
		c0-4.8-3.9-8.6-8.6-8.6h-32.2l0-84.3c0-4.8-3.9-8.6-8.6-8.6c-4.8,0-8.6,3.9-8.6,8.6v84.4h-13.4L146.6,350.7L146.6,350.7z
		 M361,311.8v23.8c0,6.6,4.2,12.1,10.1,14.2v169.7h-1.5c-4.8,0-8.6,3.9-8.6,8.6v30.3H339v-30.3c0-4.8-3.9-8.6-8.6-8.6l-1.5,0V349.8
		c5.9-2.1,10.1-7.6,10.1-14.2v-23.8L361,311.8L361,311.8z M481.9,311.8v23.8c0,6.6,4.2,12.1,10.1,14.2v169.7h-1.5
		c-4.8,0-8.6,3.9-8.6,8.6v30.3h-22.1v-30.3c0-4.8-3.9-8.6-8.6-8.6h-32.2v-84.4c0-4.8-3.9-8.6-8.6-8.6c-4.8,0-8.6,3.9-8.6,8.6v84.4
		h-13.4l0-168.8h44.1v149c0,4.8,3.9,8.6,8.6,8.6c4.8,0,8.6-3.9,8.6-8.6l0-149.9c5.9-2.1,10.1-7.6,10.1-14.2v-23.8L481.9,311.8
		L481.9,311.8z M442.6,333.5h-64.3v-21.7h64.3L442.6,333.5z M289.5,426.4c-4.8,0-8.6,3.9-8.6,8.6v84.4h-13.4V350.7h44.1v168.7h-13.4
		l0-84.3C298.1,430.3,294.3,426.4,289.5,426.4L289.5,426.4z M321.7,333.5h-64.3v-21.7h64.4L321.7,333.5L321.7,333.5z M136.5,558.4
		v-21.7h64.4v21.7H136.5z M257.4,558.4v-21.7h64.4v21.7H257.4z M378.2,558.4v-21.7h64.3v21.7H378.2z M499.1,558.4v-21.7h64.4v21.7
		H499.1z M539.9,519.4v-84.3c0-4.8-3.9-8.6-8.6-8.6c-4.8,0-8.6,3.9-8.6,8.6v84.4h-13.4l0-168.8h44.1v168.7L539.9,519.4z
		 M563.4,333.5h-64.3v-21.7h64.4L563.4,333.5L563.4,333.5z M111,294.5v-39.5h354.5c4.8,0,8.6-3.9,8.6-8.6c0-4.8-3.9-8.6-8.6-8.6
		l-324.4,0l202.2-94.7c4.2-2,9-2,13.2,0l202.3,94.7h-24.3c-4.8,0-8.6,3.9-8.6,8.6c0,4.8,3.9,8.6,8.6,8.6h54.4v39.5L111,294.5z"/>
	<path class="st0" d="M446.4,203.5l-83.9-39.3c-8-3.7-17.1-3.7-25,0l-83.9,39.2c-5,2.4-7.7,7.7-6.5,13.2c1.2,5.4,5.9,9.2,11.4,9.2
		h182.8c5.6,0,10.2-3.8,11.4-9.2C454,211.2,451.4,205.8,446.4,203.5L446.4,203.5z M260.9,219.1C260.9,219.1,260.9,219.1,260.9,219.1
		C260.9,219.1,260.9,219.1,260.9,219.1z M283.4,208.6l61.3-28.7c3.3-1.5,7.1-1.5,10.4,0l61.3,28.7H283.4z"/>
	<path class="st0" d="M506.8,246.4c0,4.8-3.9,8.7-8.7,8.7s-8.7-3.9-8.7-8.7c0-4.8,3.9-8.7,8.7-8.7S506.8,241.7,506.8,246.4"/>
</g>
</svg>
