<?xml version="1.0" encoding="utf-8"?>
<!-- Generator: Adobe Illustrator 25.2.3, SVG Export Plug-In . SVG Version: 6.00 Build 0)  -->
<svg version="1.1" id="Laag_1" xmlns="http://www.w3.org/2000/svg" xmlns:xlink="http://www.w3.org/1999/xlink" x="0px" y="0px"
	 viewBox="0 0 700 700" style="enable-background:new 0 0 700 700;" xml:space="preserve">
<style type="text/css">
	.st0{fill:#1B77C5;}
</style>
<g>
	<ellipse class="st0" cx="350" cy="350" rx="37" ry="37.5"/>
	<path class="st0" d="M350,148.7c-111,0-201.3,89.9-201.3,201.3S239,551.3,350,551.3S551.3,461.4,551.3,350S461,148.7,350,148.7z
		 M490,380.2h-37.5c-2.2,7.3-5,14.6-9,21.3l26.9,27.4l-42,42.6l-26.9-27.4c-6.7,3.9-14,6.7-21.3,9v39.2h-59.4V453
		c-7.3-2.2-14.6-5-21.3-9l-26.9,27.4l-42-42.6l26.9-27.4c-3.9-6.7-6.7-14-9-21.3H210v-60.5h38.1c2.2-7.3,5-14.6,9-21.3L230.2,271
		l42-42.6l26.9,27.4c6.7-3.9,14-6.7,21.3-9v-39.2h58.8V247c7.3,2.2,14.6,5,21.3,9l26.9-27.4l42,42.6l-26.9,27.4
		c3.9,6.7,6.7,14,9,21.3H490V380.2z"/>
	<ellipse class="st0" cx="350" cy="350" rx="37" ry="37.5"/>
</g>
</svg>
